# xmcd
#
# Track frame offsets:
#	150
#	15574
#	30195
#	43954
#	60382
#	76690
#	89026
#	98962
#	111608
#	124786
#	138688
#	149867
#	163564
#	177251
#	189638
#	203795
#	217235
#	236234
#
# Disc length: 3321 seconds
#
# Revision: 1
# Processed by: cddbd v1.5.1PL0 Copyright (c) Steve Scherf et al.
# Submitted via: audiograbber 1.83.01
#
DISCID=110cf712
DTITLE=Various Artist - Voices II
DYEAR=1900
DGENRE=Blues
TTITLE0=Judy Garland - Come rain or come shine
TTITLE1=Billie Holiday - Fine and mellow
TTITLE2=Sarah Vaughan - Misty
TTITLE3=Nina Simone - Here comes the rain
TTITLE4=Lena Horne - Every Time we say Goodbye
TTITLE5=Ella Fitzgerald - My last affair
TTITLE6=Peggy Lee - The Lady is a tramp
TTITLE7=Doris Day - Someone like you
TTITLE8=Marilyn Monroe - Everybody needs a Da Da Daddy
TTITLE9=Dinah Washington - My Lovin' Papa
TTITLE10=Dinah Shore - I've got my eyes on you
TTITLE11=Nina Simone - I ain't hot no - I got Life
TTITLE12=Billie Holiday - Night and Day
TTITLE13=Judy Garland - That old Black Magic
TTITLE14=Doris Day - My dreams is yours
TTITLE15=Marlene Dietrich - You do something to me
TTITLE16=Lena Horne - When I fall in Love
TTITLE17=Ella Fitzgerald - Make Love to me
EXTD=
EXTT0=
EXTT1=
EXTT2=
EXTT3=
EXTT4=
EXTT5=
EXTT6=
EXTT7=
EXTT8=
EXTT9=
EXTT10=
EXTT11=
EXTT12=
EXTT13=
EXTT14=
EXTT15=
EXTT16=
EXTT17=
PLAYORDER=
